<svg width="139" height="60" viewBox="0 0 139 60" fill="none" xmlns="http://www.w3.org/2000/svg">
<circle cx="30" cy="30" r="30" fill="#00B8AF"/>
<path d="M16.48 29.44C16.48 28.3333 16.7067 27.3467 17.16 26.48C17.6267 25.6 18.24 24.9133 19 24.42C19.7733 23.9267 20.6133 23.68 21.52 23.68C22.8267 23.68 23.84 24.0933 24.56 24.92V23.78H28.48V40.36H24.56V33.68C23.7333 34.6533 22.7133 35.14 21.5 35.14C20.5933 35.14 19.7533 34.9 18.98 34.42C18.22 33.94 17.6133 33.2667 17.16 32.4C16.7067 31.5333 16.48 30.5467 16.48 29.44ZM24.56 29.38C24.56 28.6333 24.3467 28.0667 23.92 27.68C23.5067 27.28 23.04 27.08 22.52 27.08C22 27.08 21.5267 27.2867 21.1 27.7C20.6867 28.1 20.48 28.68 20.48 29.44C20.48 30.2 20.6867 30.7733 21.1 31.16C21.5133 31.5333 21.9867 31.72 22.52 31.72C23.04 31.72 23.5067 31.52 23.92 31.12C24.3467 30.72 24.56 30.14 24.56 29.38ZM30.0738 29.44C30.0738 28.3333 30.3004 27.3467 30.7538 26.48C31.2204 25.6 31.8338 24.9133 32.5938 24.42C33.3671 23.9267 34.2071 23.68 35.1138 23.68C36.4204 23.68 37.4338 24.0933 38.1538 24.92V23.78H42.0738V40.36H38.1538V33.68C37.3271 34.6533 36.3071 35.14 35.0938 35.14C34.1871 35.14 33.3471 34.9 32.5738 34.42C31.8138 33.94 31.2071 33.2667 30.7538 32.4C30.3004 31.5333 30.0738 30.5467 30.0738 29.44ZM38.1538 29.38C38.1538 28.6333 37.9404 28.0667 37.5138 27.68C37.1004 27.28 36.6338 27.08 36.1138 27.08C35.5938 27.08 35.1204 27.2867 34.6938 27.7C34.2804 28.1 34.0738 28.68 34.0738 29.44C34.0738 30.2 34.2804 30.7733 34.6938 31.16C35.1071 31.5333 35.5804 31.72 36.1138 31.72C36.6338 31.72 37.1004 31.52 37.5138 31.12C37.9404 30.72 38.1538 30.14 38.1538 29.38Z" fill="white"/>
<path d="M76.976 27.264H79.6L76.144 31.456L79.904 36H77.2L73.632 31.568V36H71.248V27.264H73.632V31.504L76.976 27.264ZM84.7383 27.088C85.9116 27.088 86.8076 27.344 87.4263 27.856C88.0556 28.3573 88.3703 29.1307 88.3703 30.176V36H86.7063L86.2423 34.816H86.1783C85.9329 35.1253 85.6769 35.3813 85.4103 35.584C85.1543 35.7867 84.8556 35.9307 84.5143 36.016C84.1836 36.112 83.7729 36.16 83.2823 36.16C82.7703 36.16 82.3063 36.064 81.8903 35.872C81.4849 35.6693 81.1649 35.3653 80.9303 34.96C80.6956 34.544 80.5783 34.0213 80.5783 33.392C80.5783 32.464 80.9036 31.7813 81.5543 31.344C82.2049 30.896 83.1809 30.6507 84.4823 30.608L86.0023 30.56V30.176C86.0023 29.7173 85.8796 29.3813 85.6343 29.168C85.3996 28.9547 85.0689 28.848 84.6423 28.848C84.2156 28.848 83.7996 28.912 83.3943 29.04C82.9889 29.1573 82.5836 29.3067 82.1783 29.488L81.3943 27.872C81.8636 27.6267 82.3809 27.4347 82.9463 27.296C83.5223 27.1573 84.1196 27.088 84.7383 27.088ZM85.0743 31.984C84.3063 32.0053 83.7729 32.144 83.4743 32.4C83.1756 32.656 83.0263 32.992 83.0263 33.408C83.0263 33.7707 83.1329 34.032 83.3463 34.192C83.5596 34.3413 83.8369 34.416 84.1783 34.416C84.6903 34.416 85.1223 34.2667 85.4743 33.968C85.8263 33.6587 86.0023 33.2267 86.0023 32.672V31.952L85.0743 31.984ZM95.6745 27.104C96.6558 27.104 97.4505 27.488 98.0585 28.256C98.6665 29.0133 98.9705 30.1333 98.9705 31.616C98.9705 32.608 98.8265 33.4453 98.5385 34.128C98.2505 34.8 97.8558 35.3067 97.3545 35.648C96.8532 35.9893 96.2718 36.16 95.6105 36.16C95.1945 36.16 94.8318 36.1067 94.5225 36C94.2238 35.8933 93.9678 35.7547 93.7545 35.584C93.5412 35.4133 93.3545 35.232 93.1945 35.04H93.0665C93.1092 35.2427 93.1412 35.456 93.1625 35.68C93.1838 35.8933 93.1945 36.1067 93.1945 36.32V39.84H90.8105V27.264H92.7465L93.0825 28.4H93.1945C93.3545 28.1653 93.5465 27.952 93.7705 27.76C93.9945 27.5573 94.2612 27.3973 94.5705 27.28C94.8905 27.1627 95.2585 27.104 95.6745 27.104ZM94.9065 29.008C94.4905 29.008 94.1598 29.0933 93.9145 29.264C93.6692 29.4347 93.4878 29.696 93.3705 30.048C93.2638 30.3893 93.2052 30.8213 93.1945 31.344V31.6C93.1945 32.1653 93.2478 32.6453 93.3545 33.04C93.4612 33.424 93.6425 33.7173 93.8985 33.92C94.1545 34.1227 94.5012 34.224 94.9385 34.224C95.3012 34.224 95.5998 34.1227 95.8345 33.92C96.0692 33.7173 96.2452 33.4187 96.3625 33.024C96.4798 32.6293 96.5385 32.1493 96.5385 31.584C96.5385 30.7307 96.4052 30.0907 96.1385 29.664C95.8825 29.2267 95.4718 29.008 94.9065 29.008ZM105 30.64C105.896 30.64 106.637 30.736 107.224 30.928C107.81 31.1093 108.242 31.392 108.52 31.776C108.808 32.16 108.952 32.64 108.952 33.216C108.952 33.7813 108.818 34.272 108.552 34.688C108.296 35.104 107.885 35.4293 107.32 35.664C106.754 35.888 106.013 36 105.096 36H100.936V27.264H103.32V30.64H105ZM106.568 33.248C106.568 32.9067 106.429 32.6613 106.152 32.512C105.885 32.3627 105.485 32.288 104.952 32.288H103.32V34.352H104.984C105.453 34.352 105.832 34.2667 106.12 34.096C106.418 33.9253 106.568 33.6427 106.568 33.248ZM114.364 27.104C115.174 27.104 115.868 27.2587 116.444 27.568C117.03 27.8773 117.484 28.3253 117.804 28.912C118.124 29.4987 118.284 30.2187 118.284 31.072V32.224H112.652C112.673 32.896 112.87 33.424 113.244 33.808C113.628 34.192 114.156 34.384 114.828 34.384C115.393 34.384 115.905 34.3307 116.364 34.224C116.822 34.1067 117.297 33.9307 117.788 33.696V35.536C117.361 35.7493 116.908 35.904 116.428 36C115.958 36.1067 115.388 36.16 114.716 36.16C113.841 36.16 113.068 36 112.396 35.68C111.724 35.3493 111.196 34.8533 110.812 34.192C110.428 33.5307 110.236 32.6987 110.236 31.696C110.236 30.672 110.406 29.824 110.748 29.152C111.1 28.4693 111.585 27.9573 112.204 27.616C112.822 27.2747 113.542 27.104 114.364 27.104ZM114.38 28.8C113.921 28.8 113.537 28.9493 113.228 29.248C112.929 29.5467 112.753 30.0107 112.7 30.64H116.044C116.044 30.288 115.98 29.9733 115.852 29.696C115.734 29.4187 115.553 29.2 115.308 29.04C115.062 28.88 114.753 28.8 114.38 28.8ZM125.081 27.104C126.062 27.104 126.857 27.488 127.465 28.256C128.073 29.0133 128.377 30.1333 128.377 31.616C128.377 32.608 128.233 33.4453 127.945 34.128C127.657 34.8 127.262 35.3067 126.761 35.648C126.259 35.9893 125.678 36.16 125.017 36.16C124.601 36.16 124.238 36.1067 123.929 36C123.63 35.8933 123.374 35.7547 123.161 35.584C122.947 35.4133 122.761 35.232 122.601 35.04H122.473C122.515 35.2427 122.547 35.456 122.569 35.68C122.59 35.8933 122.601 36.1067 122.601 36.32V39.84H120.217V27.264H122.153L122.489 28.4H122.601C122.761 28.1653 122.953 27.952 123.177 27.76C123.401 27.5573 123.667 27.3973 123.977 27.28C124.297 27.1627 124.665 27.104 125.081 27.104ZM124.313 29.008C123.897 29.008 123.566 29.0933 123.321 29.264C123.075 29.4347 122.894 29.696 122.777 30.048C122.67 30.3893 122.611 30.8213 122.601 31.344V31.6C122.601 32.1653 122.654 32.6453 122.761 33.04C122.867 33.424 123.049 33.7173 123.305 33.92C123.561 34.1227 123.907 34.224 124.345 34.224C124.707 34.224 125.006 34.1227 125.241 33.92C125.475 33.7173 125.651 33.4187 125.769 33.024C125.886 32.6293 125.945 32.1493 125.945 31.584C125.945 30.7307 125.811 30.0907 125.545 29.664C125.289 29.2267 124.878 29.008 124.313 29.008ZM133.926 27.088C135.099 27.088 135.995 27.344 136.614 27.856C137.243 28.3573 137.558 29.1307 137.558 30.176V36H135.894L135.43 34.816H135.366C135.12 35.1253 134.864 35.3813 134.598 35.584C134.342 35.7867 134.043 35.9307 133.702 36.016C133.371 36.112 132.96 36.16 132.47 36.16C131.958 36.16 131.494 36.064 131.078 35.872C130.672 35.6693 130.352 35.3653 130.118 34.96C129.883 34.544 129.766 34.0213 129.766 33.392C129.766 32.464 130.091 31.7813 130.742 31.344C131.392 30.896 132.368 30.6507 133.67 30.608L135.19 30.56V30.176C135.19 29.7173 135.067 29.3813 134.822 29.168C134.587 28.9547 134.256 28.848 133.83 28.848C133.403 28.848 132.987 28.912 132.582 29.04C132.176 29.1573 131.771 29.3067 131.366 29.488L130.582 27.872C131.051 27.6267 131.568 27.4347 132.134 27.296C132.71 27.1573 133.307 27.088 133.926 27.088ZM134.262 31.984C133.494 32.0053 132.96 32.144 132.662 32.4C132.363 32.656 132.214 32.992 132.214 33.408C132.214 33.7707 132.32 34.032 132.534 34.192C132.747 34.3413 133.024 34.416 133.366 34.416C133.878 34.416 134.31 34.2667 134.662 33.968C135.014 33.6587 135.19 33.2267 135.19 32.672V31.952L134.262 31.984Z" fill="black"/>
</svg>
