<svg width="32" height="32" viewBox="0 0 32 32" fill="none" xmlns="http://www.w3.org/2000/svg">
<circle cx="16" cy="16" r="16" fill="#00B8AF"/>
<path d="M6.336 14.108C6.336 13.3333 6.49467 12.6427 6.812 12.036C7.13867 11.42 7.568 10.9393 8.1 10.594C8.64133 10.2487 9.22933 10.076 9.864 10.076C10.7787 10.076 11.488 10.3653 11.992 10.944V10.146H14.736V21.752H11.992V17.076C11.4133 17.7573 10.6993 18.098 9.85 18.098C9.21533 18.098 8.62733 17.93 8.086 17.594C7.554 17.258 7.12933 16.7867 6.812 16.18C6.49467 15.5733 6.336 14.8827 6.336 14.108ZM11.992 14.066C11.992 13.5433 11.8427 13.1467 11.544 12.876C11.2547 12.596 10.928 12.456 10.564 12.456C10.2 12.456 9.86867 12.6007 9.57 12.89C9.28067 13.17 9.136 13.576 9.136 14.108C9.136 14.64 9.28067 15.0413 9.57 15.312C9.85933 15.5733 10.1907 15.704 10.564 15.704C10.928 15.704 11.2547 15.564 11.544 15.284C11.8427 15.004 11.992 14.598 11.992 14.066ZM15.8516 14.108C15.8516 13.3333 16.0103 12.6427 16.3276 12.036C16.6543 11.42 17.0836 10.9393 17.6156 10.594C18.157 10.2487 18.745 10.076 19.3796 10.076C20.2943 10.076 21.0036 10.3653 21.5076 10.944V10.146H24.2516V21.752H21.5076V17.076C20.929 17.7573 20.215 18.098 19.3656 18.098C18.731 18.098 18.143 17.93 17.6016 17.594C17.0696 17.258 16.645 16.7867 16.3276 16.18C16.0103 15.5733 15.8516 14.8827 15.8516 14.108ZM21.5076 14.066C21.5076 13.5433 21.3583 13.1467 21.0596 12.876C20.7703 12.596 20.4436 12.456 20.0796 12.456C19.7156 12.456 19.3843 12.6007 19.0856 12.89C18.7963 13.17 18.6516 13.576 18.6516 14.108C18.6516 14.64 18.7963 15.0413 19.0856 15.312C19.375 15.5733 19.7063 15.704 20.0796 15.704C20.4436 15.704 20.7703 15.564 21.0596 15.284C21.3583 15.004 21.5076 14.598 21.5076 14.066Z" fill="white"/>
</svg>
